<svg width="480" height="280" viewBox="0 0 480 280" fill="none" xmlns="http://www.w3.org/2000/svg">
<rect width="480" height="280" rx="25" fill="#A6E3E9"/>
<path d="M194.2 93.92L191 90.32H213.68L216.88 93.92H207.24L207.32 118.16L201.72 117V93.92H194.2ZM223.498 109.04L232.578 102.84C230.658 101.613 229.018 101.16 227.658 101.48C226.325 101.8 225.298 102.64 224.578 104C223.858 105.333 223.498 107.013 223.498 109.04ZM224.418 112.88C225.165 113.787 226.005 114.347 226.938 114.56C227.872 114.773 228.845 114.653 229.858 114.2C230.898 113.72 231.765 113.253 232.458 112.8C233.152 112.32 233.965 111.693 234.898 110.92L235.698 111.72C236.205 112.28 236.712 112.84 237.218 113.4L238.018 114.2C235.698 115.907 233.738 117.04 232.138 117.6C230.538 118.187 228.952 118.187 227.378 117.6C225.085 116.72 222.925 115.173 220.898 112.96C219.698 111.627 219.005 110.053 218.818 108.24C218.632 106.4 218.858 104.693 219.498 103.12C220.165 101.547 221.178 100.213 222.538 99.12C223.925 98 225.432 97.44 227.058 97.44C228.125 97.44 229.698 98.1333 231.778 99.52C233.885 100.88 235.632 102.213 237.018 103.52C236.992 103.6 235.925 104.427 233.818 106C231.738 107.547 229.645 109.08 227.538 110.6L224.418 112.88ZM258.088 100.6L256.648 102.68C256.248 102.547 255.781 102.387 255.248 102.2C254.714 101.987 254.301 101.84 254.008 101.76C253.714 101.653 253.394 101.547 253.048 101.44C252.701 101.333 252.408 101.267 252.168 101.24C251.954 101.187 251.754 101.16 251.568 101.16C249.834 101.24 248.368 102.36 247.168 104.52C246.021 106.6 245.581 108.693 245.848 110.8C246.088 112.907 247.021 114.08 248.648 114.32C250.541 114.587 253.074 113.493 256.248 111.04L257.008 111.92C257.541 112.507 258.061 113.107 258.568 113.72L259.328 114.6C258.288 115.373 257.368 116 256.568 116.48C255.794 116.96 254.994 117.347 254.168 117.64C253.341 117.96 252.528 118.107 251.728 118.08C250.954 118.08 250.154 117.92 249.328 117.6C247.034 116.72 244.874 115.173 242.848 112.96C241.648 111.627 240.981 110.053 240.848 108.24C240.741 106.4 241.061 104.693 241.808 103.12C242.581 101.547 243.714 100.213 245.208 99.12C246.701 98 248.328 97.44 250.088 97.44C250.914 97.44 253.581 98.4933 258.088 100.6ZM267.934 89.72V100.84C270.414 98.4667 272.561 97.3467 274.374 97.48C275.227 97.5333 276.721 98.6 278.854 100.68C281.014 102.733 282.161 104.133 282.294 104.88C282.401 105.573 282.454 110 282.454 118.16L277.494 117.04C277.654 107.893 277.587 103.053 277.294 102.52C276.787 101.587 275.961 101.32 274.814 101.72C273.694 102.093 272.521 102.787 271.294 103.8C270.094 104.787 268.974 105.907 267.934 107.16V118.16L262.934 117.04V88.6L267.934 89.72ZM313.866 92L313.826 92.12L324.546 118.16L319.386 117L316.586 109.68L307.146 110.32L304.266 118.16L298.666 117L308.346 90.36L313.866 92ZM311.866 97.4L308.426 106.84L315.306 106.36L311.866 97.4ZM347.259 92L347.339 118.16L341.339 117V90.36L347.259 92ZM357.861 99V100.64C360.234 98.4267 362.314 97.3733 364.101 97.48C364.954 97.5333 366.447 98.6 368.581 100.68C370.741 102.733 371.887 104.133 372.021 104.88C372.127 105.573 372.181 110 372.181 118.16L367.221 117.04C367.381 107.893 367.314 103.053 367.021 102.52C366.541 101.613 365.741 101.347 364.621 101.72C363.527 102.067 362.381 102.707 361.181 103.64C360.007 104.573 358.901 105.667 357.861 106.92V118.16L352.661 117.04V97.88L357.861 99ZM375.608 100.68L374.408 97.88H377.688V93.56L382.608 94.68V97.88H387.488L388.688 100.68H382.608V105.76C382.608 106.053 382.608 106.493 382.608 107.08C382.608 107.8 382.594 108.52 382.568 109.24C382.568 109.96 382.608 110.64 382.688 111.28C382.794 111.92 382.914 112.507 383.048 113.04C383.181 113.573 383.408 114 383.728 114.32C384.048 114.64 384.434 114.853 384.888 114.96C385.341 115.067 385.914 115 386.608 114.76C387.328 114.493 388.141 114.067 389.048 113.48L390.128 114.72C388.581 116.133 387.288 117.12 386.248 117.68C385.448 118.133 384.341 118.053 382.928 117.44C381.541 116.853 380.314 116.027 379.248 114.96C378.208 113.867 377.688 112.92 377.688 112.12V100.68H375.608ZM397.522 109.04L406.602 102.84C404.682 101.613 403.042 101.16 401.682 101.48C400.349 101.8 399.322 102.64 398.602 104C397.882 105.333 397.522 107.013 397.522 109.04ZM398.442 112.88C399.189 113.787 400.029 114.347 400.962 114.56C401.895 114.773 402.869 114.653 403.882 114.2C404.922 113.72 405.789 113.253 406.482 112.8C407.175 112.32 407.989 111.693 408.922 110.92L409.722 111.72C410.229 112.28 410.735 112.84 411.242 113.4L412.042 114.2C409.722 115.907 407.762 117.04 406.162 117.6C404.562 118.187 402.975 118.187 401.402 117.6C399.109 116.72 396.949 115.173 394.922 112.96C393.722 111.627 393.029 110.053 392.842 108.24C392.655 106.4 392.882 104.693 393.522 103.12C394.189 101.547 395.202 100.213 396.562 99.12C397.949 98 399.455 97.44 401.082 97.44C402.149 97.44 403.722 98.1333 405.802 99.52C407.909 100.88 409.655 102.213 411.042 103.52C411.015 103.6 409.949 104.427 407.842 106C405.762 107.547 403.669 109.08 401.562 110.6L398.442 112.88ZM420.591 99V101.96C422.538 98.8933 424.191 97.36 425.551 97.36C426.218 97.36 427.338 97.7067 428.911 98.4C430.485 99.0667 431.805 99.76 432.871 100.48L430.111 104.48C428.458 103.253 427.018 102.587 425.791 102.48C424.591 102.347 423.631 102.587 422.911 103.2C422.191 103.787 421.418 104.747 420.591 106.08V118.16L415.591 117.04V97.88L420.591 99ZM440.478 99V100.64C442.851 98.4267 444.931 97.3733 446.718 97.48C447.571 97.5333 449.064 98.6 451.198 100.68C453.358 102.733 454.504 104.133 454.638 104.88C454.744 105.573 454.798 110 454.798 118.16L449.838 117.04C449.998 107.893 449.931 103.053 449.638 102.52C449.158 101.613 448.358 101.347 447.238 101.72C446.144 102.067 444.998 102.707 443.798 103.64C442.624 104.573 441.518 105.667 440.478 106.92V118.16L435.278 117.04V97.88L440.478 99Z" fill="url(#paint0_linear_3_12)"/>
<path d="M194.328 142.784L194.344 146.384C195.165 146.384 195.875 146.283 196.472 146.08C197.069 145.867 197.507 145.611 197.784 145.312C198.061 145.003 198.264 144.677 198.392 144.336C198.52 143.995 198.563 143.685 198.52 143.408C198.488 143.131 198.413 142.928 198.296 142.8C198.093 142.587 197.768 142.453 197.32 142.4C196.883 142.336 196.413 142.347 195.912 142.432C195.411 142.507 194.883 142.624 194.328 142.784ZM194.344 147.184L194.36 151.168C196.259 151.36 197.651 151.035 198.536 150.192C199.112 149.637 199.32 149.013 199.16 148.32C199.053 147.851 198.787 147.472 198.36 147.184C197.261 147.653 195.923 147.653 194.344 147.184ZM194.36 152.016L192.12 151.52V141.296C193.005 141.051 194.077 140.917 195.336 140.896C196.605 140.875 197.368 140.96 197.624 141.152C197.955 141.365 198.397 141.739 198.952 142.272C199.517 142.805 199.96 143.259 200.28 143.632C200.419 143.856 200.488 144.133 200.488 144.464C200.488 144.795 200.371 145.179 200.136 145.616C199.901 146.043 199.587 146.405 199.192 146.704C200.056 147.205 200.76 147.765 201.304 148.384C201.485 148.597 201.555 148.901 201.512 149.296C201.469 149.691 201.304 150.101 201.016 150.528C200.728 150.955 200.291 151.333 199.704 151.664C199.128 151.995 198.397 152.203 197.512 152.288C196.637 152.384 195.587 152.293 194.36 152.016ZM205.133 144.8V145.984C205.912 144.757 206.573 144.144 207.117 144.144C207.384 144.144 207.832 144.283 208.461 144.56C209.091 144.827 209.619 145.104 210.045 145.392L208.941 146.992C208.28 146.501 207.704 146.235 207.213 146.192C206.733 146.139 206.349 146.235 206.061 146.48C205.773 146.715 205.464 147.099 205.133 147.632V152.464L203.133 152.016V144.352L205.133 144.8ZM212.224 143.376C211.68 143.12 211.275 142.731 211.008 142.208C211.029 142.037 211.189 141.819 211.488 141.552C211.787 141.285 212.027 141.131 212.208 141.088C212.752 141.333 213.152 141.712 213.408 142.224C213.227 142.683 212.832 143.067 212.224 143.376ZM213.184 144.8V152.464L211.184 152.016V144.352L213.184 144.8ZM217.702 151.184C218.545 151.611 219.563 151.403 220.758 150.56V146.064C220.449 145.883 220.017 145.76 219.462 145.696C219.025 145.653 218.598 145.877 218.182 146.368C217.766 146.848 217.451 147.408 217.238 148.048C217.025 148.688 216.945 149.323 216.998 149.952C217.062 150.571 217.297 150.981 217.702 151.184ZM220.758 140.64L222.758 141.088C222.822 148.288 222.822 151.92 222.758 151.984C222.705 151.995 222.427 152.053 221.926 152.16C221.435 152.277 221.121 152.347 220.982 152.368C220.843 152.389 220.555 152.421 220.118 152.464C219.691 152.507 219.35 152.507 219.094 152.464C218.849 152.421 218.539 152.347 218.166 152.24C217.793 152.144 217.435 152 217.094 151.808C216.486 151.477 216.017 151.072 215.686 150.592C215.355 150.112 215.179 149.621 215.158 149.12C215.137 148.619 215.195 148.112 215.334 147.6C215.473 147.077 215.691 146.603 215.99 146.176C216.299 145.739 216.625 145.355 216.966 145.024C217.318 144.693 217.686 144.459 218.07 144.32C218.454 144.171 218.795 144.144 219.094 144.24C219.233 144.283 219.377 144.347 219.526 144.432C219.686 144.507 219.814 144.576 219.91 144.64C220.017 144.704 220.161 144.8 220.342 144.928C220.534 145.056 220.673 145.147 220.758 145.2V140.64ZM226.597 151.696C226.661 151.835 227.413 151.755 228.853 151.456C230.303 151.147 231.077 151.04 231.173 151.136C231.631 151.584 231.93 152.053 232.069 152.544C232.207 153.035 232.191 153.483 232.021 153.888C231.85 154.293 231.599 154.661 231.269 154.992C230.938 155.333 230.538 155.6 230.069 155.792C229.599 155.984 229.125 156.08 228.645 156.08C227.834 156.08 227.018 155.84 226.197 155.36C225.386 154.891 224.895 154.485 224.725 154.144C224.703 154.112 224.709 154.064 224.741 154C224.773 153.947 224.831 153.877 224.917 153.792C225.002 153.707 225.093 153.616 225.189 153.52C225.295 153.424 225.434 153.291 225.605 153.12C225.775 152.96 225.935 152.805 226.085 152.656C225.967 152.485 225.551 151.835 224.837 150.704C224.815 150.629 224.799 150.571 224.789 150.528C224.778 150.485 224.805 150.448 224.868 150.416C224.943 150.373 225.018 150.341 225.093 150.32C225.167 150.288 225.274 150.256 225.413 150.224C225.562 150.192 225.701 150.165 225.829 150.144C225.967 150.123 226.133 150.091 226.325 150.048C226.527 149.995 226.714 149.941 226.885 149.888C226.693 149.771 226.325 149.477 225.781 149.008C225.45 148.731 225.199 148.432 225.029 148.112C224.858 147.781 224.773 147.472 224.773 147.184C224.773 146.885 224.821 146.587 224.917 146.288C225.013 145.989 225.162 145.723 225.365 145.488C225.567 145.253 225.781 145.035 226.005 144.832C226.239 144.629 226.49 144.48 226.757 144.384C227.034 144.277 227.29 144.208 227.525 144.176C227.759 144.144 227.983 144.181 228.197 144.288C228.922 144.64 229.434 144.907 229.733 145.088H232.581L233.061 146.208H230.885C232.143 148.437 231.279 150.064 228.293 151.088C228.058 151.163 227.743 151.259 227.349 151.376C226.847 151.536 226.597 151.643 226.597 151.696ZM229.125 145.76C228.677 145.429 228.175 145.483 227.621 145.92C227.077 146.357 226.746 146.896 226.629 147.536C226.522 148.176 226.698 148.709 227.157 149.136C227.594 149.435 228.095 149.381 228.661 148.976C229.237 148.56 229.583 148.048 229.701 147.44C229.829 146.821 229.637 146.261 229.125 145.76ZM226.597 153.344L226.517 153.264L225.797 154.144C226.575 154.485 227.343 154.608 228.101 154.512C228.869 154.416 229.53 154.176 230.085 153.792C230.65 153.419 230.927 153.024 230.917 152.608C230.917 152.533 230.602 152.608 229.973 152.832C229.354 153.067 228.725 153.269 228.085 153.44C227.445 153.611 226.949 153.579 226.597 153.344ZM235.521 143.376C234.977 143.12 234.572 142.731 234.305 142.208C234.326 142.037 234.486 141.819 234.785 141.552C235.084 141.285 235.324 141.131 235.505 141.088C236.049 141.333 236.449 141.712 236.705 142.224C236.524 142.683 236.129 143.067 235.521 143.376ZM236.481 144.8V152.464L234.481 152.016V144.352L236.481 144.8ZM240.807 144.8V145.456C241.756 144.571 242.588 144.149 243.303 144.192C243.644 144.213 244.241 144.64 245.095 145.472C245.959 146.293 246.417 146.853 246.471 147.152C246.513 147.429 246.535 149.2 246.535 152.464L244.551 152.016C244.615 148.357 244.588 146.421 244.471 146.208C244.279 145.845 243.959 145.739 243.511 145.888C243.073 146.027 242.615 146.283 242.135 146.656C241.665 147.029 241.223 147.467 240.807 147.968V152.464L238.727 152.016V144.352L240.807 144.8ZM250.05 151.696C250.114 151.835 250.866 151.755 252.306 151.456C253.756 151.147 254.53 151.04 254.626 151.136C255.084 151.584 255.383 152.053 255.522 152.544C255.66 153.035 255.644 153.483 255.474 153.888C255.303 154.293 255.052 154.661 254.722 154.992C254.391 155.333 253.991 155.6 253.522 155.792C253.052 155.984 252.578 156.08 252.098 156.08C251.287 156.08 250.471 155.84 249.65 155.36C248.839 154.891 248.348 154.485 248.178 154.144C248.156 154.112 248.162 154.064 248.194 154C248.226 153.947 248.284 153.877 248.37 153.792C248.455 153.707 248.546 153.616 248.642 153.52C248.748 153.424 248.887 153.291 249.058 153.12C249.228 152.96 249.388 152.805 249.538 152.656C249.42 152.485 249.004 151.835 248.29 150.704C248.268 150.629 248.252 150.571 248.242 150.528C248.231 150.485 248.258 150.448 248.322 150.416C248.396 150.373 248.471 150.341 248.546 150.32C248.62 150.288 248.727 150.256 248.866 150.224C249.015 150.192 249.154 150.165 249.282 150.144C249.42 150.123 249.586 150.091 249.778 150.048C249.98 149.995 250.167 149.941 250.338 149.888C250.146 149.771 249.778 149.477 249.234 149.008C248.903 148.731 248.652 148.432 248.482 148.112C248.311 147.781 248.226 147.472 248.226 147.184C248.226 146.885 248.274 146.587 248.37 146.288C248.466 145.989 248.615 145.723 248.818 145.488C249.02 145.253 249.234 145.035 249.458 144.832C249.692 144.629 249.943 144.48 250.21 144.384C250.487 144.277 250.743 144.208 250.978 144.176C251.212 144.144 251.436 144.181 251.65 144.288C252.375 144.64 252.887 144.907 253.186 145.088H256.034L256.514 146.208H254.338C255.596 148.437 254.732 150.064 251.746 151.088C251.511 151.163 251.196 151.259 250.802 151.376C250.3 151.536 250.05 151.643 250.05 151.696ZM252.578 145.76C252.13 145.429 251.628 145.483 251.074 145.92C250.53 146.357 250.199 146.896 250.082 147.536C249.975 148.176 250.151 148.709 250.61 149.136C251.047 149.435 251.548 149.381 252.114 148.976C252.69 148.56 253.036 148.048 253.154 147.44C253.282 146.821 253.09 146.261 252.578 145.76ZM250.05 153.344L249.97 153.264L249.25 154.144C250.028 154.485 250.796 154.608 251.554 154.512C252.322 154.416 252.983 154.176 253.538 153.792C254.103 153.419 254.38 153.024 254.37 152.608C254.37 152.533 254.055 152.608 253.426 152.832C252.807 153.067 252.178 153.269 251.538 153.44C250.898 153.611 250.402 153.579 250.05 153.344ZM263.624 142.768L262.344 141.328H271.416L272.696 142.768H268.84L268.872 152.464L266.632 152V142.768H263.624ZM278.799 145.968C278.095 145.488 277.364 145.563 276.607 146.192C275.978 146.725 275.556 147.435 275.343 148.32C275.108 149.333 275.29 150.096 275.887 150.608C275.962 150.672 276.042 150.731 276.127 150.784C276.554 151.019 276.991 151.072 277.439 150.944C277.898 150.816 278.292 150.533 278.623 150.096C278.964 149.659 279.231 149.195 279.423 148.704C279.615 148.203 279.663 147.696 279.567 147.184C279.471 146.661 279.215 146.256 278.799 145.968ZM280.399 146.096C280.708 146.373 280.948 146.709 281.119 147.104C281.29 147.488 281.386 147.883 281.407 148.288C281.439 148.693 281.402 149.104 281.295 149.52C281.199 149.936 281.05 150.325 280.847 150.688C280.644 151.051 280.388 151.376 280.079 151.664C279.78 151.941 279.45 152.149 279.087 152.288C278.724 152.437 278.319 152.496 277.871 152.464C277.434 152.432 276.986 152.293 276.527 152.048C275.93 151.728 275.343 151.323 274.767 150.832C274.308 150.437 273.967 149.995 273.743 149.504C273.519 149.003 273.412 148.517 273.423 148.048C273.444 147.579 273.535 147.109 273.695 146.64C273.866 146.171 274.106 145.765 274.415 145.424C274.735 145.083 275.082 144.795 275.455 144.56C275.828 144.315 276.228 144.187 276.655 144.176C277.092 144.165 277.514 144.256 277.919 144.448C278.954 144.992 279.78 145.541 280.399 146.096ZM285.149 144.8V145.232C285.906 144.496 286.605 144.149 287.245 144.192C287.447 144.203 287.778 144.395 288.237 144.768C288.695 145.131 289.133 145.536 289.549 145.984C290.551 144.736 291.479 144.139 292.333 144.192C292.674 144.213 293.271 144.64 294.125 145.472C294.989 146.293 295.447 146.853 295.501 147.152C295.543 147.429 295.565 149.2 295.565 152.464L293.581 152.016C293.645 148.347 293.618 146.405 293.501 146.192C293.373 145.957 293.186 145.835 292.941 145.824C292.706 145.813 292.445 145.893 292.157 146.064C291.879 146.235 291.597 146.453 291.309 146.72C291.021 146.976 290.733 147.269 290.445 147.6C290.466 148.187 290.477 149.808 290.477 152.464L288.493 152.016C288.557 148.347 288.53 146.405 288.413 146.192C288.253 145.957 288.05 145.835 287.805 145.824C287.57 145.813 287.293 145.915 286.973 146.128C286.653 146.331 286.338 146.581 286.029 146.88C285.73 147.168 285.437 147.493 285.149 147.856V152.464L283.149 152.016V144.352L285.149 144.8ZM302.393 145.968C301.689 145.488 300.958 145.563 300.201 146.192C299.572 146.725 299.15 147.435 298.937 148.32C298.702 149.333 298.884 150.096 299.481 150.608C299.556 150.672 299.636 150.731 299.721 150.784C300.148 151.019 300.585 151.072 301.033 150.944C301.492 150.816 301.886 150.533 302.217 150.096C302.558 149.659 302.825 149.195 303.017 148.704C303.209 148.203 303.257 147.696 303.161 147.184C303.065 146.661 302.809 146.256 302.393 145.968ZM303.993 146.096C304.302 146.373 304.542 146.709 304.713 147.104C304.884 147.488 304.98 147.883 305.001 148.288C305.033 148.693 304.996 149.104 304.889 149.52C304.793 149.936 304.644 150.325 304.441 150.688C304.238 151.051 303.982 151.376 303.673 151.664C303.374 151.941 303.044 152.149 302.681 152.288C302.318 152.437 301.913 152.496 301.465 152.464C301.028 152.432 300.58 152.293 300.121 152.048C299.524 151.728 298.937 151.323 298.361 150.832C297.902 150.437 297.561 149.995 297.337 149.504C297.113 149.003 297.006 148.517 297.017 148.048C297.038 147.579 297.129 147.109 297.289 146.64C297.46 146.171 297.7 145.765 298.009 145.424C298.329 145.083 298.676 144.795 299.049 144.56C299.422 144.315 299.822 144.187 300.249 144.176C300.686 144.165 301.108 144.256 301.513 144.448C302.548 144.992 303.374 145.541 303.993 146.096ZM308.758 144.8V145.984C309.537 144.757 310.198 144.144 310.742 144.144C311.009 144.144 311.457 144.283 312.086 144.56C312.716 144.827 313.244 145.104 313.67 145.392L312.566 146.992C311.905 146.501 311.329 146.235 310.838 146.192C310.358 146.139 309.974 146.235 309.686 146.48C309.398 146.715 309.089 147.099 308.758 147.632V152.464L306.758 152.016V144.352L308.758 144.8ZM316.649 144.8V145.984C317.428 144.757 318.089 144.144 318.633 144.144C318.9 144.144 319.348 144.283 319.977 144.56C320.606 144.827 321.134 145.104 321.561 145.392L320.457 146.992C319.796 146.501 319.22 146.235 318.729 146.192C318.249 146.139 317.865 146.235 317.577 146.48C317.289 146.715 316.98 147.099 316.649 147.632V152.464L314.649 152.016V144.352L316.649 144.8ZM327.612 145.968C326.908 145.488 326.177 145.563 325.42 146.192C324.79 146.725 324.369 147.435 324.156 148.32C323.921 149.333 324.102 150.096 324.7 150.608C324.774 150.672 324.854 150.731 324.94 150.784C325.366 151.019 325.804 151.072 326.252 150.944C326.71 150.816 327.105 150.533 327.436 150.096C327.777 149.659 328.044 149.195 328.236 148.704C328.428 148.203 328.476 147.696 328.38 147.184C328.284 146.661 328.028 146.256 327.612 145.968ZM329.212 146.096C329.521 146.373 329.761 146.709 329.932 147.104C330.102 147.488 330.198 147.883 330.22 148.288C330.252 148.693 330.214 149.104 330.108 149.52C330.012 149.936 329.862 150.325 329.66 150.688C329.457 151.051 329.201 151.376 328.892 151.664C328.593 151.941 328.262 152.149 327.9 152.288C327.537 152.437 327.132 152.496 326.684 152.464C326.246 152.432 325.798 152.293 325.34 152.048C324.742 151.728 324.156 151.323 323.58 150.832C323.121 150.437 322.78 149.995 322.556 149.504C322.332 149.003 322.225 148.517 322.236 148.048C322.257 147.579 322.348 147.109 322.508 146.64C322.678 146.171 322.918 145.765 323.228 145.424C323.548 145.083 323.894 144.795 324.268 144.56C324.641 144.315 325.041 144.187 325.468 144.176C325.905 144.165 326.326 144.256 326.732 144.448C327.766 144.992 328.593 145.541 329.212 146.096ZM333.081 144.8L335.081 149.648L336.921 144.352L338.921 144.8L340.921 149.648L342.761 144.352L344.761 144.8L342.105 152.464H342.089L340.089 152.016L338.089 147.2L336.265 152.464H336.249L334.265 152.016H334.249L331.081 144.352L333.081 144.8ZM346.619 142.832L345.787 142.752C345.787 142.549 345.803 141.936 345.835 140.912C345.878 139.877 345.873 139.243 345.819 139.008C345.851 138.901 346.006 138.875 346.283 138.928C346.561 138.981 346.865 139.072 347.195 139.2C347.537 139.328 347.734 139.424 347.787 139.488C347.862 140.736 347.473 141.851 346.619 142.832ZM354.031 144.88L353.855 145.744C352.82 145.509 352.138 145.413 351.807 145.456C351.284 145.52 350.874 145.776 350.575 146.224C350.276 146.661 350.17 147.083 350.255 147.488C350.276 147.584 350.522 147.573 350.991 147.456C351.46 147.339 351.972 147.221 352.527 147.104C353.082 146.976 353.439 146.955 353.599 147.04C354.335 147.424 354.831 147.931 355.087 148.56C355.343 149.189 355.37 149.792 355.167 150.368C354.975 150.933 354.575 151.424 353.967 151.84C353.359 152.256 352.628 152.464 351.775 152.464C351.071 152.464 350.415 152.272 349.807 151.888C349.21 151.493 348.506 150.907 347.695 150.128L347.983 149.584C348.708 150.128 349.476 150.496 350.287 150.688C351.098 150.869 351.85 150.795 352.543 150.464C353.247 150.133 353.716 149.525 353.951 148.64C353.962 148.597 353.914 148.581 353.807 148.592C353.69 148.603 353.396 148.672 352.927 148.8C351.444 149.195 350.5 149.312 350.095 149.152L349.951 149.072C349.364 148.624 348.89 148.133 348.527 147.6C348.26 147.237 348.148 146.853 348.191 146.448C348.244 146.043 348.383 145.675 348.607 145.344C348.831 145.003 349.167 144.725 349.615 144.512C350.063 144.288 350.554 144.176 351.087 144.176C351.247 144.176 351.471 144.208 351.759 144.272C352.058 144.336 352.474 144.448 353.007 144.608C353.551 144.757 353.892 144.848 354.031 144.88ZM364.769 142L364.801 152.464L362.401 152V141.344L364.769 142ZM369.01 144.8V145.456C369.959 144.571 370.791 144.149 371.506 144.192C371.847 144.213 372.445 144.64 373.298 145.472C374.162 146.293 374.621 146.853 374.674 147.152C374.717 147.429 374.738 149.2 374.738 152.464L372.754 152.016C372.818 148.357 372.791 146.421 372.674 146.208C372.482 145.845 372.162 145.739 371.714 145.888C371.277 146.027 370.818 146.283 370.338 146.656C369.869 147.029 369.426 147.467 369.01 147.968V152.464L366.93 152.016V144.352L369.01 144.8ZM378.557 144.8V145.456C379.506 144.571 380.338 144.149 381.053 144.192C381.394 144.213 381.991 144.64 382.845 145.472C383.709 146.293 384.167 146.853 384.221 147.152C384.263 147.429 384.285 149.2 384.285 152.464L382.301 152.016C382.365 148.357 382.338 146.421 382.221 146.208C382.029 145.845 381.709 145.739 381.261 145.888C380.823 146.027 380.365 146.283 379.885 146.656C379.415 147.029 378.973 147.467 378.557 147.968V152.464L376.477 152.016V144.352L378.557 144.8ZM391.112 145.968C390.408 145.488 389.677 145.563 388.92 146.192C388.29 146.725 387.869 147.435 387.656 148.32C387.421 149.333 387.602 150.096 388.2 150.608C388.274 150.672 388.354 150.731 388.44 150.784C388.866 151.019 389.304 151.072 389.752 150.944C390.21 150.816 390.605 150.533 390.936 150.096C391.277 149.659 391.544 149.195 391.736 148.704C391.928 148.203 391.976 147.696 391.88 147.184C391.784 146.661 391.528 146.256 391.112 145.968ZM392.712 146.096C393.021 146.373 393.261 146.709 393.432 147.104C393.602 147.488 393.698 147.883 393.72 148.288C393.752 148.693 393.714 149.104 393.608 149.52C393.512 149.936 393.362 150.325 393.16 150.688C392.957 151.051 392.701 151.376 392.392 151.664C392.093 151.941 391.762 152.149 391.4 152.288C391.037 152.437 390.632 152.496 390.184 152.464C389.746 152.432 389.298 152.293 388.84 152.048C388.242 151.728 387.656 151.323 387.08 150.832C386.621 150.437 386.28 149.995 386.056 149.504C385.832 149.003 385.725 148.517 385.736 148.048C385.757 147.579 385.848 147.109 386.008 146.64C386.178 146.171 386.418 145.765 386.728 145.424C387.048 145.083 387.394 144.795 387.768 144.56C388.141 144.315 388.541 144.187 388.968 144.176C389.405 144.165 389.826 144.256 390.232 144.448C391.266 144.992 392.093 145.541 392.712 146.096ZM396.581 144.8L398.629 149.776L400.741 144.352L402.741 144.8L399.765 152.464H399.749L397.765 152.016H397.749L394.581 144.352L396.581 144.8ZM404.43 146.384L403.566 144.928C404.313 144.736 405.14 144.555 406.046 144.384C406.964 144.213 407.54 144.133 407.774 144.144C408.009 144.155 408.478 144.507 409.182 145.2C409.886 145.883 410.361 146.405 410.606 146.768C410.692 146.896 410.734 147.328 410.734 148.064C410.734 148.789 410.718 149.621 410.686 150.56C410.665 151.499 410.66 152.133 410.67 152.464L408.686 152L408.702 151.184C407.838 152.048 407.134 152.48 406.59 152.48C406.078 152.469 405.428 151.984 404.638 151.024C403.849 150.064 403.454 149.376 403.454 148.96C403.454 148.629 403.678 148.325 404.126 148.048C404.574 147.771 405.118 147.557 405.758 147.408C406.409 147.248 406.985 147.125 407.486 147.04C407.988 146.955 408.414 146.896 408.766 146.864L408.782 146.432C408.793 145.92 408.521 145.643 407.966 145.6C407.454 145.568 406.377 145.797 404.734 146.288H404.718L404.702 146.304H404.686H404.67L404.654 146.32H404.638H404.622L404.606 146.336H404.59H404.574L404.558 146.352H404.542H404.526H404.51L404.494 146.368H404.478H404.462L404.446 146.384H404.43ZM405.23 150.4C405.326 150.549 405.508 150.645 405.774 150.688C406.041 150.731 406.441 150.661 406.974 150.48C407.518 150.288 408.105 149.957 408.734 149.488L408.75 148.08C405.934 148.901 404.761 149.675 405.23 150.4ZM412.265 145.472L411.785 144.352H413.097V142.624L415.065 143.072V144.352H417.017L417.497 145.472H415.065V147.504C415.065 147.621 415.065 147.797 415.065 148.032C415.065 148.32 415.06 148.608 415.049 148.896C415.049 149.184 415.065 149.456 415.097 149.712C415.14 149.968 415.188 150.203 415.241 150.416C415.294 150.629 415.385 150.8 415.513 150.928C415.641 151.056 415.796 151.141 415.977 151.184C416.158 151.227 416.388 151.2 416.665 151.104C416.953 150.997 417.278 150.827 417.641 150.592L418.073 151.088C417.454 151.653 416.937 152.048 416.521 152.272C416.201 152.453 415.758 152.421 415.193 152.176C414.638 151.941 414.148 151.611 413.721 151.184C413.305 150.747 413.097 150.368 413.097 150.048V145.472H412.265ZM424.487 145.968C423.783 145.488 423.052 145.563 422.295 146.192C421.665 146.725 421.244 147.435 421.031 148.32C420.796 149.333 420.977 150.096 421.575 150.608C421.649 150.672 421.729 150.731 421.815 150.784C422.241 151.019 422.679 151.072 423.127 150.944C423.585 150.816 423.98 150.533 424.311 150.096C424.652 149.659 424.919 149.195 425.111 148.704C425.303 148.203 425.351 147.696 425.255 147.184C425.159 146.661 424.903 146.256 424.487 145.968ZM426.087 146.096C426.396 146.373 426.636 146.709 426.807 147.104C426.977 147.488 427.073 147.883 427.095 148.288C427.127 148.693 427.089 149.104 426.983 149.52C426.887 149.936 426.737 150.325 426.535 150.688C426.332 151.051 426.076 151.376 425.767 151.664C425.468 151.941 425.137 152.149 424.775 152.288C424.412 152.437 424.007 152.496 423.559 152.464C423.121 152.432 422.673 152.293 422.215 152.048C421.617 151.728 421.031 151.323 420.455 150.832C419.996 150.437 419.655 149.995 419.431 149.504C419.207 149.003 419.1 148.517 419.111 148.048C419.132 147.579 419.223 147.109 419.383 146.64C419.553 146.171 419.793 145.765 420.103 145.424C420.423 145.083 420.769 144.795 421.143 144.56C421.516 144.315 421.916 144.187 422.343 144.176C422.78 144.165 423.201 144.256 423.607 144.448C424.641 144.992 425.468 145.541 426.087 146.096ZM430.852 144.8V145.984C431.631 144.757 432.292 144.144 432.836 144.144C433.103 144.144 433.551 144.283 434.18 144.56C434.809 144.827 435.337 145.104 435.764 145.392L434.66 146.992C433.999 146.501 433.423 146.235 432.932 146.192C432.452 146.139 432.068 146.235 431.78 146.48C431.492 146.715 431.183 147.099 430.852 147.632V152.464L428.852 152.016V144.352L430.852 144.8ZM442.375 144.88L442.199 145.744C441.164 145.509 440.481 145.413 440.151 145.456C439.628 145.52 439.217 145.776 438.919 146.224C438.62 146.661 438.513 147.083 438.599 147.488C438.62 147.584 438.865 147.573 439.335 147.456C439.804 147.339 440.316 147.221 440.871 147.104C441.425 146.976 441.783 146.955 441.943 147.04C442.679 147.424 443.175 147.931 443.431 148.56C443.687 149.189 443.713 149.792 443.511 150.368C443.319 150.933 442.919 151.424 442.311 151.84C441.703 152.256 440.972 152.464 440.119 152.464C439.415 152.464 438.759 152.272 438.151 151.888C437.553 151.493 436.849 150.907 436.039 150.128L436.327 149.584C437.052 150.128 437.82 150.496 438.631 150.688C439.441 150.869 440.193 150.795 440.887 150.464C441.591 150.133 442.06 149.525 442.295 148.64C442.305 148.597 442.257 148.581 442.151 148.592C442.033 148.603 441.74 148.672 441.271 148.8C439.788 149.195 438.844 149.312 438.439 149.152L438.295 149.072C437.708 148.624 437.233 148.133 436.871 147.6C436.604 147.237 436.492 146.853 436.535 146.448C436.588 146.043 436.727 145.675 436.951 145.344C437.175 145.003 437.511 144.725 437.959 144.512C438.407 144.288 438.897 144.176 439.431 144.176C439.591 144.176 439.815 144.208 440.103 144.272C440.401 144.336 440.817 144.448 441.351 144.608C441.895 144.757 442.236 144.848 442.375 144.88Z" fill="url(#paint1_linear_3_12)"/>
<path d="M193.128 165.8L195.128 170.648L196.968 165.352L198.968 165.8L200.968 170.648L202.808 165.352L204.808 165.8L202.152 173.464H202.136L200.136 173.016L198.136 168.2L196.312 173.464H196.296L194.312 173.016H194.296L191.128 165.352L193.128 165.8ZM207.13 164.376C206.586 164.12 206.181 163.731 205.914 163.208C205.936 163.037 206.096 162.819 206.394 162.552C206.693 162.285 206.933 162.131 207.114 162.088C207.658 162.333 208.058 162.712 208.314 163.224C208.133 163.683 207.738 164.067 207.13 164.376ZM208.09 165.8V173.464L206.09 173.016V165.352L208.09 165.8ZM209.968 166.472L209.488 165.352H210.8V163.624L212.768 164.072V165.352H214.72L215.2 166.472H212.768V168.504C212.768 168.621 212.768 168.797 212.768 169.032C212.768 169.32 212.763 169.608 212.752 169.896C212.752 170.184 212.768 170.456 212.8 170.712C212.843 170.968 212.891 171.203 212.944 171.416C212.997 171.629 213.088 171.8 213.216 171.928C213.344 172.056 213.499 172.141 213.68 172.184C213.861 172.227 214.091 172.2 214.368 172.104C214.656 171.997 214.981 171.827 215.344 171.592L215.776 172.088C215.157 172.653 214.64 173.048 214.224 173.272C213.904 173.453 213.461 173.421 212.896 173.176C212.341 172.941 211.851 172.611 211.424 172.184C211.008 171.747 210.8 171.368 210.8 171.048V166.472H209.968ZM219.102 162.088V166.536C220.094 165.587 220.952 165.139 221.678 165.192C222.019 165.213 222.616 165.64 223.47 166.472C224.334 167.293 224.792 167.853 224.846 168.152C224.888 168.429 224.91 170.2 224.91 173.464L222.926 173.016C222.99 169.357 222.963 167.421 222.846 167.208C222.643 166.835 222.312 166.728 221.854 166.888C221.406 167.037 220.936 167.315 220.446 167.72C219.966 168.115 219.518 168.563 219.102 169.064V173.464L217.102 173.016V161.64L219.102 162.088ZM232.514 163.768L231.234 162.328H240.306L241.586 163.768H237.73L237.762 173.464L235.522 173V163.768H232.514ZM247.69 166.968C246.986 166.488 246.255 166.563 245.498 167.192C244.868 167.725 244.447 168.435 244.234 169.32C243.999 170.333 244.18 171.096 244.778 171.608C244.852 171.672 244.932 171.731 245.018 171.784C245.444 172.019 245.882 172.072 246.33 171.944C246.788 171.816 247.183 171.533 247.514 171.096C247.855 170.659 248.122 170.195 248.314 169.704C248.506 169.203 248.554 168.696 248.458 168.184C248.362 167.661 248.106 167.256 247.69 166.968ZM249.29 167.096C249.599 167.373 249.839 167.709 250.01 168.104C250.18 168.488 250.276 168.883 250.298 169.288C250.33 169.693 250.292 170.104 250.186 170.52C250.09 170.936 249.94 171.325 249.738 171.688C249.535 172.051 249.279 172.376 248.97 172.664C248.671 172.941 248.34 173.149 247.978 173.288C247.615 173.437 247.21 173.496 246.762 173.464C246.324 173.432 245.876 173.293 245.418 173.048C244.82 172.728 244.234 172.323 243.658 171.832C243.199 171.437 242.858 170.995 242.634 170.504C242.41 170.003 242.303 169.517 242.314 169.048C242.335 168.579 242.426 168.109 242.586 167.64C242.756 167.171 242.996 166.765 243.306 166.424C243.626 166.083 243.972 165.795 244.346 165.56C244.719 165.315 245.119 165.187 245.546 165.176C245.983 165.165 246.404 165.256 246.81 165.448C247.844 165.992 248.671 166.541 249.29 167.096ZM254.311 172.184C255.154 172.611 256.173 172.403 257.367 171.56V167.064C257.058 166.883 256.626 166.76 256.071 166.696C255.634 166.653 255.207 166.877 254.791 167.368C254.375 167.848 254.061 168.408 253.847 169.048C253.634 169.688 253.554 170.323 253.607 170.952C253.671 171.571 253.906 171.981 254.311 172.184ZM257.367 161.64L259.367 162.088C259.431 169.288 259.431 172.92 259.367 172.984C259.314 172.995 259.037 173.053 258.535 173.16C258.045 173.277 257.73 173.347 257.591 173.368C257.453 173.389 257.165 173.421 256.727 173.464C256.301 173.507 255.959 173.507 255.703 173.464C255.458 173.421 255.149 173.347 254.775 173.24C254.402 173.144 254.045 173 253.703 172.808C253.095 172.477 252.626 172.072 252.295 171.592C251.965 171.112 251.789 170.621 251.767 170.12C251.746 169.619 251.805 169.112 251.943 168.6C252.082 168.077 252.301 167.603 252.599 167.176C252.909 166.739 253.234 166.355 253.575 166.024C253.927 165.693 254.295 165.459 254.679 165.32C255.063 165.171 255.405 165.144 255.703 165.24C255.842 165.283 255.986 165.347 256.135 165.432C256.295 165.507 256.423 165.576 256.519 165.64C256.626 165.704 256.77 165.8 256.951 165.928C257.143 166.056 257.282 166.147 257.367 166.2V161.64ZM262.118 167.384L261.254 165.928C262.001 165.736 262.827 165.555 263.734 165.384C264.651 165.213 265.227 165.133 265.462 165.144C265.697 165.155 266.166 165.507 266.87 166.2C267.574 166.883 268.049 167.405 268.294 167.768C268.379 167.896 268.422 168.328 268.422 169.064C268.422 169.789 268.406 170.621 268.374 171.56C268.353 172.499 268.347 173.133 268.358 173.464L266.374 173L266.39 172.184C265.526 173.048 264.822 173.48 264.278 173.48C263.766 173.469 263.115 172.984 262.326 172.024C261.537 171.064 261.142 170.376 261.142 169.96C261.142 169.629 261.366 169.325 261.814 169.048C262.262 168.771 262.806 168.557 263.446 168.408C264.097 168.248 264.673 168.125 265.174 168.04C265.675 167.955 266.102 167.896 266.454 167.864L266.47 167.432C266.481 166.92 266.209 166.643 265.654 166.6C265.142 166.568 264.065 166.797 262.422 167.288H262.406L262.39 167.304H262.374H262.358L262.342 167.32H262.326H262.31L262.294 167.336H262.278H262.262L262.246 167.352H262.23H262.214H262.198L262.182 167.368H262.166H262.15L262.134 167.384H262.118ZM262.918 171.4C263.014 171.549 263.195 171.645 263.462 171.688C263.729 171.731 264.129 171.661 264.662 171.48C265.206 171.288 265.793 170.957 266.422 170.488L266.438 169.08C263.622 169.901 262.449 170.675 262.918 171.4ZM275.217 165.352L277.217 165.8V173.992C277.217 174.621 276.945 175.208 276.401 175.752C275.857 176.296 275.254 176.68 274.593 176.904C273.942 177.139 273.435 177.176 273.073 177.016C272.934 176.952 272.721 176.84 272.433 176.68C272.155 176.52 271.803 176.312 271.377 176.056C270.961 175.811 270.646 175.624 270.433 175.496L270.849 174.872C271.489 175.245 271.915 175.485 272.129 175.592C272.907 175.976 273.617 175.955 274.257 175.528C274.897 175.112 275.217 174.285 275.217 173.048V172.456C274.459 173.171 273.793 173.507 273.217 173.464C272.875 173.443 272.321 173.053 271.553 172.296C270.795 171.528 270.39 170.989 270.337 170.68C270.273 170.253 270.241 168.467 270.241 165.32L272.225 165.768C272.161 169.459 272.198 171.405 272.337 171.608C272.657 171.992 273.105 172.008 273.681 171.656C274.267 171.293 274.779 170.739 275.217 169.992V165.352ZM279.932 163.832L279.1 163.752C279.1 163.549 279.116 162.936 279.148 161.912C279.191 160.877 279.185 160.243 279.132 160.008C279.164 159.901 279.319 159.875 279.596 159.928C279.873 159.981 280.177 160.072 280.508 160.2C280.849 160.328 281.047 160.424 281.1 160.488C281.175 161.736 280.785 162.851 279.932 163.832ZM287.344 165.88L287.168 166.744C286.133 166.509 285.45 166.413 285.12 166.456C284.597 166.52 284.186 166.776 283.888 167.224C283.589 167.661 283.482 168.083 283.568 168.488C283.589 168.584 283.834 168.573 284.304 168.456C284.773 168.339 285.285 168.221 285.84 168.104C286.394 167.976 286.752 167.955 286.912 168.04C287.648 168.424 288.144 168.931 288.4 169.56C288.656 170.189 288.682 170.792 288.48 171.368C288.288 171.933 287.888 172.424 287.28 172.84C286.672 173.256 285.941 173.464 285.088 173.464C284.384 173.464 283.728 173.272 283.12 172.888C282.522 172.493 281.818 171.907 281.008 171.128L281.296 170.584C282.021 171.128 282.789 171.496 283.6 171.688C284.41 171.869 285.162 171.795 285.856 171.464C286.56 171.133 287.029 170.525 287.264 169.64C287.274 169.597 287.226 169.581 287.12 169.592C287.002 169.603 286.709 169.672 286.24 169.8C284.757 170.195 283.813 170.312 283.408 170.152L283.264 170.072C282.677 169.624 282.202 169.133 281.84 168.6C281.573 168.237 281.461 167.853 281.504 167.448C281.557 167.043 281.696 166.675 281.92 166.344C282.144 166.003 282.48 165.725 282.928 165.512C283.376 165.288 283.866 165.176 284.4 165.176C284.56 165.176 284.784 165.208 285.072 165.272C285.37 165.336 285.786 165.448 286.32 165.608C286.864 165.757 287.205 165.848 287.344 165.88ZM302.93 163.848C301.863 163.144 300.807 163.181 299.762 163.96C298.919 164.6 298.306 165.523 297.922 166.728C297.506 168.072 297.548 169.229 298.05 170.2C298.295 170.691 298.658 171.08 299.138 171.368C300.215 172.019 301.271 171.944 302.306 171.144C303.148 170.493 303.751 169.56 304.114 168.344C304.508 167 304.434 165.848 303.89 164.888C303.655 164.461 303.335 164.115 302.93 163.848ZM305.426 164.632C305.831 165.027 306.135 165.496 306.338 166.04C306.54 166.573 306.636 167.123 306.626 167.688C306.626 168.243 306.535 168.808 306.354 169.384C306.183 169.96 305.943 170.499 305.634 171C305.335 171.491 304.972 171.933 304.546 172.328C304.119 172.712 303.66 173.005 303.17 173.208C302.679 173.411 302.146 173.496 301.57 173.464C300.994 173.432 300.428 173.256 299.874 172.936C299.788 172.883 299.634 172.797 299.41 172.68C299.196 172.563 299.042 172.483 298.946 172.44C298.86 172.387 298.727 172.307 298.546 172.2C298.364 172.083 298.21 171.981 298.082 171.896C297.964 171.8 297.815 171.688 297.634 171.56C297.463 171.421 297.287 171.272 297.106 171.112C296.924 170.952 296.732 170.771 296.53 170.568C296.135 170.195 295.842 169.747 295.65 169.224C295.468 168.701 295.383 168.163 295.394 167.608C295.415 167.053 295.511 166.493 295.682 165.928C295.852 165.352 296.087 164.813 296.386 164.312C296.695 163.8 297.058 163.347 297.474 162.952C297.89 162.547 298.327 162.232 298.786 162.008C299.255 161.773 299.756 161.656 300.29 161.656C300.823 161.656 301.346 161.795 301.858 162.072C303.244 162.819 304.434 163.672 305.426 164.632ZM313.102 171C313.379 170.627 313.598 170.232 313.758 169.816C313.928 169.389 314.019 168.989 314.03 168.616C314.051 168.243 314.019 167.891 313.934 167.56C313.859 167.219 313.71 166.947 313.486 166.744C313.262 166.531 313 166.387 312.702 166.312C312.414 166.237 312.056 166.269 311.63 166.408C311.203 166.547 310.75 166.792 310.27 167.144L310.238 171.672C310.43 171.8 310.675 171.885 310.974 171.928C311.272 171.971 311.624 171.923 312.03 171.784C312.446 171.645 312.803 171.384 313.102 171ZM312.03 173.4C311.784 173.336 311.475 173.203 311.102 173C310.728 172.797 310.451 172.632 310.27 172.504V177.064L308.27 176.616C308.238 169.523 308.238 165.901 308.27 165.752C308.942 165.56 309.475 165.427 309.87 165.352C310.275 165.267 310.734 165.213 311.246 165.192C311.758 165.16 312.243 165.224 312.702 165.384C313.171 165.533 313.651 165.768 314.142 166.088C314.782 166.515 315.251 167.021 315.55 167.608C315.848 168.184 315.976 168.755 315.934 169.32C315.902 169.875 315.758 170.429 315.502 170.984C315.256 171.528 314.942 171.997 314.558 172.392C314.174 172.776 313.752 173.064 313.294 173.256C312.846 173.448 312.424 173.496 312.03 173.4ZM322.352 171C322.629 170.627 322.848 170.232 323.008 169.816C323.178 169.389 323.269 168.989 323.28 168.616C323.301 168.243 323.269 167.891 323.184 167.56C323.109 167.219 322.96 166.947 322.736 166.744C322.512 166.531 322.25 166.387 321.952 166.312C321.664 166.237 321.306 166.269 320.88 166.408C320.453 166.547 320 166.792 319.52 167.144L319.488 171.672C319.68 171.8 319.925 171.885 320.224 171.928C320.522 171.971 320.874 171.923 321.28 171.784C321.696 171.645 322.053 171.384 322.352 171ZM321.28 173.4C321.034 173.336 320.725 173.203 320.352 173C319.978 172.797 319.701 172.632 319.52 172.504V177.064L317.52 176.616C317.488 169.523 317.488 165.901 317.52 165.752C318.192 165.56 318.725 165.427 319.12 165.352C319.525 165.267 319.984 165.213 320.496 165.192C321.008 165.16 321.493 165.224 321.952 165.384C322.421 165.533 322.901 165.768 323.392 166.088C324.032 166.515 324.501 167.021 324.8 167.608C325.098 168.184 325.226 168.755 325.184 169.32C325.152 169.875 325.008 170.429 324.752 170.984C324.506 171.528 324.192 171.997 323.808 172.392C323.424 172.776 323.002 173.064 322.544 173.256C322.096 173.448 321.674 173.496 321.28 173.4ZM332.034 166.968C331.33 166.488 330.599 166.563 329.842 167.192C329.212 167.725 328.791 168.435 328.578 169.32C328.343 170.333 328.524 171.096 329.122 171.608C329.196 171.672 329.276 171.731 329.362 171.784C329.788 172.019 330.226 172.072 330.674 171.944C331.132 171.816 331.527 171.533 331.858 171.096C332.199 170.659 332.466 170.195 332.658 169.704C332.85 169.203 332.898 168.696 332.802 168.184C332.706 167.661 332.45 167.256 332.034 166.968ZM333.634 167.096C333.943 167.373 334.183 167.709 334.354 168.104C334.524 168.488 334.62 168.883 334.642 169.288C334.674 169.693 334.636 170.104 334.53 170.52C334.433 170.936 334.284 171.325 334.082 171.688C333.879 172.051 333.623 172.376 333.314 172.664C333.015 172.941 332.684 173.149 332.322 173.288C331.959 173.437 331.554 173.496 331.106 173.464C330.668 173.432 330.22 173.293 329.762 173.048C329.164 172.728 328.578 172.323 328.002 171.832C327.543 171.437 327.202 170.995 326.978 170.504C326.754 170.003 326.647 169.517 326.658 169.048C326.679 168.579 326.77 168.109 326.93 167.64C327.1 167.171 327.34 166.765 327.65 166.424C327.97 166.083 328.316 165.795 328.69 165.56C329.063 165.315 329.463 165.187 329.89 165.176C330.327 165.165 330.748 165.256 331.154 165.448C332.188 165.992 333.015 166.541 333.634 167.096ZM338.399 165.8V166.984C339.178 165.757 339.839 165.144 340.383 165.144C340.65 165.144 341.098 165.283 341.727 165.56C342.356 165.827 342.884 166.104 343.311 166.392L342.207 167.992C341.546 167.501 340.97 167.235 340.479 167.192C339.999 167.139 339.615 167.235 339.327 167.48C339.039 167.715 338.73 168.099 338.399 168.632V173.464L336.399 173.016V165.352L338.399 165.8ZM343.906 166.472L343.426 165.352H344.738V163.624L346.706 164.072V165.352H348.658L349.138 166.472H346.706V168.504C346.706 168.621 346.706 168.797 346.706 169.032C346.706 169.32 346.7 169.608 346.69 169.896C346.69 170.184 346.706 170.456 346.738 170.712C346.78 170.968 346.828 171.203 346.882 171.416C346.935 171.629 347.026 171.8 347.154 171.928C347.282 172.056 347.436 172.141 347.618 172.184C347.799 172.227 348.028 172.2 348.306 172.104C348.594 171.997 348.919 171.827 349.282 171.592L349.714 172.088C349.095 172.653 348.578 173.048 348.162 173.272C347.842 173.453 347.399 173.421 346.834 173.176C346.279 172.941 345.788 172.611 345.362 172.184C344.946 171.747 344.738 171.368 344.738 171.048V166.472H343.906ZM356.415 165.368L358.415 165.816V173.48L356.415 173.032V172.232C355.562 173.107 354.773 173.517 354.047 173.464C353.706 173.443 353.098 173.048 352.223 172.28C351.349 171.512 350.885 170.979 350.831 170.68C350.789 170.403 350.767 168.632 350.767 165.368L352.751 165.816C352.698 169.485 352.725 171.432 352.831 171.656C353.045 171.955 353.365 172.051 353.791 171.944C354.229 171.837 354.709 171.533 355.231 171.032C355.765 170.531 356.159 169.981 356.415 169.384V165.368ZM362.51 165.8V166.456C363.459 165.571 364.291 165.149 365.006 165.192C365.347 165.213 365.945 165.64 366.798 166.472C367.662 167.293 368.121 167.853 368.174 168.152C368.217 168.429 368.238 170.2 368.238 173.464L366.254 173.016C366.318 169.357 366.291 167.421 366.174 167.208C365.982 166.845 365.662 166.739 365.214 166.888C364.777 167.027 364.318 167.283 363.838 167.656C363.369 168.029 362.926 168.467 362.51 168.968V173.464L360.43 173.016V165.352L362.51 165.8ZM371.193 164.376C370.649 164.12 370.243 163.731 369.977 163.208C369.998 163.037 370.158 162.819 370.457 162.552C370.755 162.285 370.995 162.131 371.177 162.088C371.721 162.333 372.121 162.712 372.377 163.224C372.195 163.683 371.801 164.067 371.193 164.376ZM372.153 165.8V173.464L370.153 173.016V165.352L372.153 165.8ZM374.031 166.472L373.551 165.352H374.863V163.624L376.831 164.072V165.352H378.783L379.263 166.472H376.831V168.504C376.831 168.621 376.831 168.797 376.831 169.032C376.831 169.32 376.825 169.608 376.815 169.896C376.815 170.184 376.831 170.456 376.863 170.712C376.905 170.968 376.953 171.203 377.007 171.416C377.06 171.629 377.151 171.8 377.279 171.928C377.407 172.056 377.561 172.141 377.743 172.184C377.924 172.227 378.153 172.2 378.431 172.104C378.719 171.997 379.044 171.827 379.407 171.592L379.839 172.088C379.22 172.653 378.703 173.048 378.287 173.272C377.967 173.453 377.524 173.421 376.959 173.176C376.404 172.941 375.913 172.611 375.487 172.184C375.071 171.747 374.863 171.368 374.863 171.048V166.472H374.031ZM382.38 164.376C381.836 164.12 381.431 163.731 381.164 163.208C381.186 163.037 381.346 162.819 381.644 162.552C381.943 162.285 382.183 162.131 382.364 162.088C382.908 162.333 383.308 162.712 383.564 163.224C383.383 163.683 382.988 164.067 382.38 164.376ZM383.34 165.8V173.464L381.34 173.016V165.352L383.34 165.8ZM387.218 169.816L390.85 167.336C390.082 166.845 389.426 166.664 388.882 166.792C388.349 166.92 387.938 167.256 387.65 167.8C387.362 168.333 387.218 169.005 387.218 169.816ZM387.586 171.352C387.885 171.715 388.221 171.939 388.594 172.024C388.967 172.109 389.357 172.061 389.762 171.88C390.178 171.688 390.525 171.501 390.802 171.32C391.079 171.128 391.405 170.877 391.778 170.568L392.098 170.888C392.301 171.112 392.503 171.336 392.706 171.56L393.026 171.88C392.098 172.563 391.314 173.016 390.674 173.24C390.034 173.475 389.399 173.475 388.77 173.24C387.853 172.888 386.989 172.269 386.178 171.384C385.698 170.851 385.421 170.221 385.346 169.496C385.271 168.76 385.362 168.077 385.618 167.448C385.885 166.819 386.29 166.285 386.834 165.848C387.389 165.4 387.991 165.176 388.642 165.176C389.069 165.176 389.698 165.453 390.53 166.008C391.373 166.552 392.071 167.085 392.626 167.608C392.615 167.64 392.189 167.971 391.346 168.6C390.514 169.219 389.677 169.832 388.834 170.44L387.586 171.352ZM400.078 165.88L399.902 166.744C398.867 166.509 398.185 166.413 397.854 166.456C397.331 166.52 396.921 166.776 396.622 167.224C396.323 167.661 396.217 168.083 396.302 168.488C396.323 168.584 396.569 168.573 397.038 168.456C397.507 168.339 398.019 168.221 398.574 168.104C399.129 167.976 399.486 167.955 399.646 168.04C400.382 168.424 400.878 168.931 401.134 169.56C401.39 170.189 401.417 170.792 401.214 171.368C401.022 171.933 400.622 172.424 400.014 172.84C399.406 173.256 398.675 173.464 397.822 173.464C397.118 173.464 396.462 173.272 395.854 172.888C395.257 172.493 394.553 171.907 393.742 171.128L394.03 170.584C394.755 171.128 395.523 171.496 396.334 171.688C397.145 171.869 397.897 171.795 398.59 171.464C399.294 171.133 399.763 170.525 399.998 169.64C400.009 169.597 399.961 169.581 399.854 169.592C399.737 169.603 399.443 169.672 398.974 169.8C397.491 170.195 396.547 170.312 396.142 170.152L395.998 170.072C395.411 169.624 394.937 169.133 394.574 168.6C394.307 168.237 394.195 167.853 394.238 167.448C394.291 167.043 394.43 166.675 394.654 166.344C394.878 166.003 395.214 165.725 395.662 165.512C396.11 165.288 396.601 165.176 397.134 165.176C397.294 165.176 397.518 165.208 397.806 165.272C398.105 165.336 398.521 165.448 399.054 165.608C399.598 165.757 399.939 165.848 400.078 165.88ZM404.006 173.352C403.462 173.096 403.057 172.707 402.79 172.184C402.812 172.013 402.972 171.795 403.27 171.528C403.569 171.261 403.809 171.107 403.99 171.064C404.534 171.309 404.934 171.688 405.19 172.2C405.009 172.659 404.614 173.043 404.006 173.352ZM405.174 162.088L404.662 170.2L403.238 169.896L403.158 161.64L405.174 162.088Z" fill="url(#paint2_linear_3_12)"/>
<circle cx="104" cy="136" r="73" fill="url(#paint3_linear_3_12)"/>
<path d="M103.259 99.6681C103.083 99.6681 102.914 99.5991 102.79 99.4762C102.665 99.3533 102.596 99.1866 102.596 99.0128V95.7753C102.596 95.6015 102.665 95.4348 102.79 95.3119C102.914 95.189 103.083 95.12 103.259 95.12C103.435 95.12 103.603 95.189 103.728 95.3119C103.852 95.4348 103.922 95.6015 103.922 95.7753V99.0101C103.922 99.0964 103.905 99.1819 103.872 99.2617C103.839 99.3415 103.79 99.4141 103.728 99.4752C103.667 99.5364 103.594 99.5849 103.513 99.618C103.432 99.6511 103.346 99.6681 103.259 99.6681Z" fill="white"/>
<path d="M118.533 105.919C118.402 105.919 118.274 105.88 118.166 105.808C118.057 105.736 117.972 105.634 117.922 105.514C117.872 105.395 117.858 105.263 117.884 105.136C117.909 105.009 117.972 104.892 118.065 104.801L120.38 102.513C120.441 102.449 120.514 102.398 120.595 102.362C120.676 102.327 120.764 102.308 120.853 102.306C120.942 102.305 121.03 102.321 121.112 102.354C121.195 102.387 121.269 102.436 121.332 102.498C121.395 102.56 121.445 102.634 121.478 102.715C121.512 102.797 121.528 102.884 121.527 102.972C121.525 103.06 121.506 103.146 121.47 103.227C121.434 103.307 121.382 103.379 121.317 103.439L119.002 105.727C118.94 105.788 118.867 105.836 118.787 105.869C118.707 105.902 118.62 105.919 118.533 105.919Z" fill="white"/>
<path d="M85.669 138.401C85.538 138.401 85.4099 138.363 85.301 138.291C85.192 138.219 85.1071 138.117 85.057 137.997C85.0068 137.878 84.9937 137.746 85.0193 137.619C85.0448 137.492 85.1079 137.375 85.2006 137.284L87.5148 134.996C87.5756 134.932 87.6487 134.881 87.73 134.845C87.8112 134.81 87.8989 134.791 87.9877 134.789C88.0766 134.788 88.1648 134.804 88.2472 134.837C88.3295 134.87 88.4044 134.919 88.4672 134.981C88.5301 135.043 88.5797 135.117 88.613 135.198C88.6464 135.28 88.6629 135.367 88.6615 135.455C88.6601 135.543 88.6409 135.629 88.605 135.71C88.569 135.79 88.5171 135.862 88.4524 135.922L86.1382 138.21C86.0136 138.332 85.8449 138.401 85.669 138.401Z" fill="white"/>
<path d="M128.134 121.017H124.861C124.686 121.017 124.517 120.947 124.393 120.825C124.268 120.702 124.198 120.535 124.198 120.361C124.198 120.187 124.268 120.021 124.393 119.898C124.517 119.775 124.686 119.706 124.861 119.706H128.134C128.31 119.706 128.479 119.775 128.603 119.898C128.728 120.021 128.797 120.187 128.797 120.361C128.797 120.535 128.728 120.702 128.603 120.825C128.479 120.947 128.31 121.017 128.134 121.017Z" fill="white"/>
<path d="M81.656 121.017H78.3831C78.2072 121.017 78.0386 120.947 77.9142 120.825C77.7899 120.702 77.72 120.535 77.72 120.361C77.72 120.187 77.7899 120.021 77.9142 119.898C78.0386 119.775 78.2072 119.706 78.3831 119.706H81.656C81.8318 119.706 82.0005 119.775 82.1248 119.898C82.2492 120.021 82.319 120.187 82.319 120.361C82.319 120.535 82.2492 120.702 82.1248 120.825C82.0005 120.947 81.8318 121.017 81.656 121.017Z" fill="white"/>
<path d="M120.846 138.401C120.759 138.401 120.672 138.384 120.592 138.351C120.512 138.319 120.439 138.27 120.377 138.21L118.062 135.922C117.938 135.799 117.868 135.632 117.869 135.458C117.869 135.284 117.939 135.118 118.064 134.995C118.188 134.872 118.357 134.803 118.533 134.804C118.709 134.804 118.878 134.873 119.002 134.996L121.317 137.284C121.409 137.375 121.473 137.492 121.498 137.619C121.524 137.746 121.51 137.878 121.46 137.997C121.41 138.117 121.325 138.219 121.216 138.291C121.107 138.363 120.979 138.401 120.848 138.401H120.846Z" fill="white"/>
<path d="M87.9833 105.919C87.8963 105.919 87.8101 105.902 87.7298 105.869C87.6494 105.836 87.5763 105.788 87.5148 105.727L85.2007 103.44C85.0764 103.317 85.0066 103.151 85.0066 102.977C85.0066 102.804 85.0764 102.637 85.2007 102.514C85.3249 102.391 85.4934 102.322 85.6691 102.322C85.8448 102.322 86.0133 102.391 86.1375 102.514L88.4517 104.801C88.5444 104.893 88.6075 105.01 88.6331 105.137C88.6586 105.264 88.6455 105.395 88.5954 105.515C88.5452 105.635 88.4603 105.737 88.3514 105.809C88.2424 105.881 88.1143 105.919 87.9833 105.919Z" fill="white"/>
<path d="M111.601 101.322C111.513 101.322 111.426 101.305 111.346 101.271C111.184 101.204 111.055 101.076 110.988 100.915C110.922 100.754 110.922 100.574 110.99 100.414L112.254 97.4301C112.325 97.2744 112.454 97.1522 112.615 97.0895C112.776 97.0268 112.955 97.0285 113.114 97.0944C113.274 97.1603 113.401 97.2851 113.469 97.4422C113.536 97.5993 113.539 97.7764 113.477 97.9356L112.213 100.919C112.163 101.039 112.078 101.141 111.969 101.212C111.86 101.284 111.732 101.322 111.601 101.322Z" fill="white"/>
<path d="M123.248 112.921C123.094 112.921 122.946 112.868 122.827 112.772C122.708 112.676 122.627 112.542 122.598 112.393C122.568 112.244 122.591 112.089 122.664 111.956C122.737 111.822 122.854 111.718 122.996 111.66L126.024 110.433C126.187 110.368 126.37 110.368 126.533 110.436C126.695 110.503 126.824 110.631 126.89 110.793C126.957 110.954 126.956 111.134 126.888 111.295C126.82 111.455 126.69 111.582 126.527 111.648L123.498 112.875C123.419 112.906 123.334 112.922 123.248 112.921Z" fill="white"/>
<path d="M80.241 130.339C80.0875 130.339 79.9388 130.286 79.8202 130.19C79.7016 130.093 79.6205 129.959 79.5908 129.811C79.5611 129.662 79.5845 129.507 79.6571 129.374C79.7298 129.24 79.8471 129.135 79.9891 129.078L83.0155 127.851C83.1785 127.785 83.3613 127.786 83.5236 127.854C83.686 127.921 83.8147 128.049 83.8813 128.21C83.948 128.371 83.9471 128.552 83.879 128.713C83.8109 128.873 83.681 129 83.5181 129.066L80.4889 130.29C80.4102 130.322 80.3261 130.338 80.241 130.339Z" fill="white"/>
<path d="M126.204 130.511C126.116 130.511 126.029 130.494 125.949 130.46L122.929 129.21C122.771 129.14 122.648 129.012 122.584 128.853C122.521 128.695 122.523 128.518 122.589 128.36C122.656 128.202 122.782 128.077 122.941 128.01C123.1 127.943 123.279 127.94 123.44 128.002L126.46 129.251C126.601 129.309 126.718 129.414 126.79 129.548C126.862 129.682 126.885 129.836 126.855 129.985C126.824 130.133 126.743 130.267 126.624 130.363C126.506 130.459 126.357 130.511 126.204 130.511Z" fill="white"/>
<path d="M83.3317 112.771C83.2439 112.771 83.157 112.754 83.0763 112.72L80.0574 111.471C79.8998 111.401 79.7761 111.273 79.7127 111.114C79.6493 110.955 79.6511 110.778 79.7177 110.62C79.7844 110.463 79.9107 110.337 80.0696 110.27C80.2286 110.203 80.4077 110.2 80.5689 110.262L83.5877 111.511C83.7292 111.57 83.8458 111.675 83.9177 111.808C83.9897 111.942 84.0125 112.097 83.9823 112.245C83.9521 112.394 83.8708 112.527 83.7522 112.623C83.6335 112.719 83.485 112.771 83.3317 112.771Z" fill="white"/>
<path d="M95.0678 101.26C94.9363 101.261 94.8076 101.222 94.6982 101.15C94.5888 101.078 94.5035 100.975 94.4533 100.855L93.2125 97.8621C93.1795 97.7823 93.1627 97.6969 93.1631 97.6107C93.1635 97.5245 93.1811 97.4393 93.2148 97.3598C93.2486 97.2803 93.2978 97.2082 93.3597 97.1476C93.4217 97.0869 93.4951 97.0389 93.5758 97.0063C93.6565 96.9737 93.7429 96.9571 93.8301 96.9575C93.9173 96.9579 94.0035 96.9752 94.0839 97.0086C94.1644 97.0419 94.2373 97.0906 94.2987 97.1518C94.3601 97.213 94.4086 97.2856 94.4416 97.3653L95.6824 100.359C95.7489 100.519 95.7482 100.7 95.6803 100.86C95.6125 101.02 95.483 101.147 95.3205 101.213C95.2403 101.245 95.1544 101.261 95.0678 101.26Z" fill="white"/>
<path d="M109.065 151.53H97.8662C97.5628 151.53 97.2719 151.411 97.0574 151.199C96.8429 150.987 96.7224 150.699 96.7224 150.4C96.7224 150.1 96.8429 149.812 97.0574 149.6C97.2719 149.388 97.5628 149.269 97.8662 149.269H109.065C109.368 149.269 109.659 149.388 109.874 149.6C110.088 149.812 110.209 150.1 110.209 150.4C110.209 150.699 110.088 150.987 109.874 151.199C109.659 151.411 109.368 151.53 109.065 151.53Z" fill="white"/>
<path d="M109.065 155.081H97.8662C97.716 155.081 97.5673 155.052 97.4285 154.995C97.2897 154.938 97.1636 154.855 97.0574 154.75C96.9512 154.645 96.867 154.52 96.8095 154.383C96.752 154.246 96.7224 154.099 96.7224 153.95C96.7224 153.65 96.8429 153.363 97.0574 153.151C97.2719 152.939 97.5628 152.82 97.8662 152.82H109.065C109.368 152.82 109.659 152.939 109.874 153.151C110.088 153.363 110.209 153.65 110.209 153.95C110.209 154.099 110.179 154.246 110.122 154.383C110.064 154.52 109.98 154.645 109.874 154.75C109.768 154.855 109.641 154.938 109.503 154.995C109.364 155.052 109.215 155.081 109.065 155.081Z" fill="white"/>
<path d="M100.75 156.418C100.685 156.418 100.621 156.433 100.562 156.46C100.503 156.487 100.451 156.527 100.409 156.576C100.368 156.626 100.338 156.684 100.321 156.746C100.305 156.808 100.302 156.873 100.314 156.937C100.451 157.656 100.838 158.305 101.407 158.772C101.977 159.24 102.694 159.495 103.435 159.495C104.175 159.495 104.892 159.24 105.462 158.772C106.032 158.305 106.419 157.656 106.555 156.937C106.567 156.873 106.565 156.808 106.548 156.746C106.532 156.684 106.502 156.626 106.46 156.576C106.418 156.527 106.366 156.487 106.307 156.46C106.248 156.433 106.184 156.418 106.119 156.418H100.75Z" fill="white"/>
<path d="M107.88 147.844H98.8905C98.1358 147.842 97.4097 147.559 96.8565 147.051C96.3034 146.544 95.9637 145.849 95.9051 145.106C95.524 140.097 93.4563 136.923 91.2664 133.565C88.8765 129.9 86.4093 126.111 86.4093 119.984C86.4093 111.71 92.3972 104.747 100.648 103.427C102.598 103.119 104.586 103.141 106.528 103.495C114.544 104.976 120.361 111.91 120.361 119.982C120.361 126.109 117.892 129.899 115.504 133.563C113.314 136.923 111.245 140.097 110.865 145.104C110.807 145.848 110.467 146.543 109.914 147.05C109.361 147.558 108.635 147.842 107.88 147.844ZM103.383 105.393C102.586 105.393 101.789 105.455 101.002 105.58C93.8271 106.728 88.619 112.784 88.619 119.981C88.619 125.466 90.8042 128.822 93.1259 132.38C95.3683 135.822 97.6873 139.38 98.1107 144.943C98.1261 145.138 98.215 145.32 98.3598 145.453C98.5046 145.586 98.6948 145.661 98.8925 145.662H107.882C108.081 145.663 108.272 145.589 108.418 145.456C108.563 145.322 108.651 145.139 108.664 144.943C109.087 139.381 111.407 135.822 113.649 132.38C115.966 128.825 118.156 125.467 118.156 119.981C118.156 112.962 113.097 106.929 106.125 105.641C105.221 105.475 104.303 105.392 103.383 105.393V105.393Z" fill="white"/>
<path d="M95.1601 130.492C94.9858 130.492 94.814 130.452 94.6586 130.374C94.5033 130.296 94.3688 130.182 94.2662 130.043C88.1335 121.717 92.654 113.903 92.8493 113.576C92.9227 113.452 93.02 113.344 93.1356 113.257C93.2513 113.171 93.3831 113.107 93.5235 113.071C93.6639 113.035 93.8101 113.026 93.9538 113.046C94.0976 113.066 94.236 113.113 94.3611 113.186C94.4863 113.258 94.5958 113.354 94.6834 113.469C94.771 113.583 94.835 113.713 94.8716 113.852C94.9083 113.991 94.9169 114.135 94.897 114.277C94.8772 114.419 94.8292 114.556 94.7558 114.68C94.5865 114.968 90.7953 121.623 96.0533 128.759C96.1734 128.922 96.2456 129.114 96.2619 129.315C96.2782 129.516 96.2378 129.717 96.1454 129.897C96.053 130.076 95.9121 130.227 95.7383 130.332C95.5645 130.438 95.3646 130.493 95.1608 130.493L95.1601 130.492Z" fill="white"/>
<line x1="51" y1="156.5" x2="86" y2="156.5" stroke="white"/>
<line x1="121" y1="156.5" x2="156" y2="156.5" stroke="white"/>
<line x1="51" y1="175.5" x2="156" y2="175.5" stroke="white"/>
<path d="M62.8066 162.576C62.8066 162.746 62.7979 162.893 62.7803 163.016C62.7686 163.133 62.748 163.229 62.7188 163.306C62.6895 163.376 62.6514 163.429 62.6045 163.464C62.5635 163.499 62.5166 163.517 62.4639 163.517H59.6162V172.684C59.6162 172.742 59.5957 172.795 59.5547 172.842C59.5195 172.889 59.458 172.927 59.3701 172.956C59.2822 172.985 59.1621 173.009 59.0098 173.026C58.8633 173.044 58.6787 173.053 58.4561 173.053C58.2334 173.053 58.0459 173.044 57.8936 173.026C57.7471 173.009 57.6299 172.985 57.542 172.956C57.4541 172.927 57.3896 172.889 57.3486 172.842C57.3135 172.795 57.2959 172.742 57.2959 172.684V163.517H54.4482C54.3896 163.517 54.3398 163.499 54.2988 163.464C54.2578 163.429 54.2227 163.376 54.1934 163.306C54.1641 163.229 54.1406 163.133 54.123 163.016C54.1113 162.893 54.1055 162.746 54.1055 162.576C54.1055 162.4 54.1113 162.251 54.123 162.128C54.1406 162.005 54.1641 161.908 54.1934 161.838C54.2227 161.762 54.2578 161.709 54.2988 161.68C54.3398 161.645 54.3896 161.627 54.4482 161.627H62.4639C62.5166 161.627 62.5635 161.645 62.6045 161.68C62.6514 161.709 62.6895 161.762 62.7188 161.838C62.748 161.908 62.7686 162.005 62.7803 162.128C62.7979 162.251 62.8066 162.4 62.8066 162.576ZM69.6973 168.553C69.6973 168.822 69.6357 169.021 69.5127 169.15C69.3955 169.279 69.2314 169.344 69.0205 169.344H64.248C64.248 169.678 64.2861 169.982 64.3623 170.258C64.4443 170.527 64.5703 170.759 64.7402 170.952C64.916 171.14 65.1387 171.283 65.4082 171.383C65.6836 171.482 66.0117 171.532 66.3926 171.532C66.7793 171.532 67.1191 171.506 67.4121 171.453C67.7051 171.395 67.957 171.333 68.168 171.269C68.3848 171.198 68.5635 171.137 68.7041 171.084C68.8447 171.025 68.959 170.996 69.0469 170.996C69.0996 170.996 69.1436 171.008 69.1787 171.031C69.2139 171.049 69.2432 171.084 69.2666 171.137C69.29 171.189 69.3047 171.266 69.3105 171.365C69.3223 171.459 69.3281 171.579 69.3281 171.726C69.3281 171.854 69.3252 171.966 69.3193 172.06C69.3135 172.147 69.3047 172.224 69.293 172.288C69.2812 172.353 69.2637 172.408 69.2402 172.455C69.2168 172.496 69.1846 172.537 69.1436 172.578C69.1084 172.619 69.0059 172.675 68.8359 172.745C68.666 172.815 68.4492 172.886 68.1855 172.956C67.9219 173.021 67.6201 173.076 67.2803 173.123C66.9404 173.176 66.5771 173.202 66.1904 173.202C65.4932 173.202 64.8809 173.114 64.3535 172.938C63.832 172.763 63.3955 172.496 63.0439 172.139C62.6924 171.781 62.4287 171.33 62.2529 170.785C62.083 170.24 61.998 169.602 61.998 168.869C61.998 168.172 62.0889 167.545 62.2705 166.988C62.4521 166.426 62.7158 165.951 63.0615 165.564C63.4072 165.172 63.8262 164.873 64.3184 164.668C64.8164 164.463 65.376 164.36 65.9971 164.36C66.6533 164.36 67.2129 164.457 67.6758 164.65C68.1445 164.844 68.5283 165.113 68.8271 165.459C69.126 165.799 69.3457 166.203 69.4863 166.672C69.627 167.141 69.6973 167.65 69.6973 168.201V168.553ZM67.5527 167.92C67.5703 167.299 67.4443 166.812 67.1748 166.461C66.9111 166.104 66.501 165.925 65.9443 165.925C65.6631 165.925 65.417 165.978 65.2061 166.083C65.001 166.188 64.8281 166.332 64.6875 166.514C64.5527 166.689 64.4473 166.9 64.3711 167.146C64.3008 167.387 64.2598 167.645 64.248 167.92H67.5527ZM77.458 171.453C77.458 171.605 77.4521 171.734 77.4404 171.84C77.4346 171.939 77.4229 172.024 77.4053 172.095C77.3936 172.165 77.376 172.224 77.3525 172.271C77.335 172.312 77.291 172.367 77.2207 172.438C77.1504 172.502 77.0303 172.584 76.8604 172.684C76.6904 172.777 76.4971 172.862 76.2803 172.938C76.0635 173.015 75.8262 173.076 75.5684 173.123C75.3164 173.17 75.0557 173.193 74.7861 173.193C74.1826 173.193 73.6465 173.1 73.1777 172.912C72.7148 172.725 72.3252 172.449 72.0088 172.086C71.6924 171.717 71.4521 171.269 71.2881 170.741C71.1299 170.214 71.0508 169.61 71.0508 168.931C71.0508 168.146 71.1475 167.469 71.3408 166.9C71.54 166.326 71.8154 165.852 72.167 165.477C72.5186 165.102 72.9346 164.823 73.415 164.642C73.8955 164.46 74.4229 164.369 74.9971 164.369C75.2314 164.369 75.46 164.39 75.6826 164.431C75.9111 164.472 76.1221 164.527 76.3154 164.598C76.5146 164.668 76.6904 164.747 76.8428 164.835C77.001 164.923 77.1123 164.999 77.1768 165.063C77.2412 165.128 77.2852 165.184 77.3086 165.23C77.3379 165.271 77.3584 165.327 77.3701 165.397C77.3877 165.468 77.3994 165.556 77.4053 165.661C77.417 165.761 77.4229 165.884 77.4229 166.03C77.4229 166.37 77.3936 166.61 77.335 166.751C77.2764 166.886 77.2002 166.953 77.1064 166.953C77.0068 166.953 76.9014 166.912 76.79 166.83C76.6787 166.748 76.5469 166.657 76.3945 166.558C76.2422 166.458 76.0605 166.367 75.8496 166.285C75.6387 166.203 75.3867 166.162 75.0938 166.162C74.5195 166.162 74.0801 166.385 73.7754 166.83C73.4707 167.27 73.3184 167.917 73.3184 168.772C73.3184 169.194 73.3564 169.566 73.4326 169.889C73.5088 170.211 73.6201 170.48 73.7666 170.697C73.9189 170.914 74.1064 171.078 74.3291 171.189C74.5576 171.295 74.8213 171.348 75.1201 171.348C75.4248 171.348 75.6855 171.304 75.9023 171.216C76.125 171.122 76.3184 171.02 76.4824 170.908C76.6465 170.797 76.7842 170.697 76.8955 170.609C77.0068 170.516 77.1006 170.469 77.1768 170.469C77.2295 170.469 77.2734 170.483 77.3086 170.513C77.3438 170.542 77.3701 170.598 77.3877 170.68C77.4111 170.756 77.4287 170.855 77.4404 170.979C77.4521 171.102 77.458 171.26 77.458 171.453ZM86.5547 172.701C86.5547 172.76 86.5371 172.812 86.502 172.859C86.4668 172.9 86.4082 172.936 86.3262 172.965C86.2441 172.994 86.1299 173.015 85.9834 173.026C85.8428 173.044 85.667 173.053 85.4561 173.053C85.2393 173.053 85.0576 173.044 84.9111 173.026C84.7705 173.015 84.6592 172.994 84.5771 172.965C84.4951 172.936 84.4365 172.9 84.4014 172.859C84.3662 172.812 84.3486 172.76 84.3486 172.701V168.228C84.3486 167.847 84.3193 167.548 84.2607 167.331C84.208 167.114 84.1289 166.93 84.0234 166.777C83.918 166.619 83.7803 166.499 83.6104 166.417C83.4463 166.329 83.2529 166.285 83.0303 166.285C82.749 166.285 82.4648 166.388 82.1777 166.593C81.8906 166.798 81.5918 167.097 81.2812 167.489V172.701C81.2812 172.76 81.2637 172.812 81.2285 172.859C81.1934 172.9 81.1318 172.936 81.0439 172.965C80.9619 172.994 80.8506 173.015 80.71 173.026C80.5693 173.044 80.3906 173.053 80.1738 173.053C79.957 173.053 79.7783 173.044 79.6377 173.026C79.4971 173.015 79.3828 172.994 79.2949 172.965C79.2129 172.936 79.1543 172.9 79.1191 172.859C79.084 172.812 79.0664 172.76 79.0664 172.701V161.144C79.0664 161.085 79.084 161.032 79.1191 160.985C79.1543 160.938 79.2129 160.9 79.2949 160.871C79.3828 160.836 79.4971 160.81 79.6377 160.792C79.7783 160.774 79.957 160.766 80.1738 160.766C80.3906 160.766 80.5693 160.774 80.71 160.792C80.8506 160.81 80.9619 160.836 81.0439 160.871C81.1318 160.9 81.1934 160.938 81.2285 160.985C81.2637 161.032 81.2812 161.085 81.2812 161.144V165.477C81.6621 165.102 82.0488 164.823 82.4414 164.642C82.8398 164.454 83.2529 164.36 83.6807 164.36C84.2139 164.36 84.6621 164.448 85.0254 164.624C85.3945 164.8 85.6904 165.04 85.9131 165.345C86.1416 165.649 86.3057 166.007 86.4053 166.417C86.5049 166.821 86.5547 167.313 86.5547 167.894V172.701ZM92.6191 168.579C92.6191 168.919 92.5869 169.156 92.5225 169.291C92.458 169.426 92.3555 169.493 92.2148 169.493H88.5586C88.4121 169.493 88.3066 169.426 88.2422 169.291C88.1777 169.15 88.1455 168.913 88.1455 168.579C88.1455 168.251 88.1777 168.02 88.2422 167.885C88.3066 167.75 88.4121 167.683 88.5586 167.683H92.2148C92.2852 167.683 92.3438 167.697 92.3906 167.727C92.4434 167.756 92.4873 167.806 92.5225 167.876C92.5576 167.946 92.5811 168.04 92.5928 168.157C92.6104 168.274 92.6191 168.415 92.6191 168.579ZM103.702 172.139C103.772 172.35 103.816 172.517 103.834 172.64C103.852 172.763 103.828 172.856 103.764 172.921C103.699 172.979 103.585 173.015 103.421 173.026C103.257 173.044 103.031 173.053 102.744 173.053C102.445 173.053 102.211 173.047 102.041 173.035C101.877 173.029 101.751 173.015 101.663 172.991C101.575 172.962 101.514 172.924 101.479 172.877C101.443 172.83 101.414 172.769 101.391 172.692L100.626 170.407H96.3545L95.6338 172.631C95.6104 172.713 95.5781 172.783 95.5371 172.842C95.502 172.895 95.4404 172.938 95.3525 172.974C95.2705 173.003 95.1504 173.023 94.9922 173.035C94.8398 173.047 94.6377 173.053 94.3857 173.053C94.1162 173.053 93.9053 173.044 93.7529 173.026C93.6006 173.009 93.4951 172.968 93.4365 172.903C93.3779 172.833 93.3574 172.736 93.375 172.613C93.3926 172.49 93.4365 172.326 93.5068 172.121L97.0137 162.031C97.0488 161.932 97.0898 161.853 97.1367 161.794C97.1836 161.729 97.2568 161.683 97.3564 161.653C97.4619 161.618 97.6055 161.598 97.7871 161.592C97.9688 161.58 98.209 161.574 98.5078 161.574C98.8535 161.574 99.1289 161.58 99.334 161.592C99.5391 161.598 99.6973 161.618 99.8086 161.653C99.9258 161.683 100.008 161.729 100.055 161.794C100.107 161.858 100.151 161.946 100.187 162.058L103.702 172.139ZM98.4814 163.798H98.4727L96.8643 168.632H100.09L98.4814 163.798ZM108.826 168.579C108.826 168.919 108.794 169.156 108.729 169.291C108.665 169.426 108.562 169.493 108.422 169.493H104.766C104.619 169.493 104.514 169.426 104.449 169.291C104.385 169.15 104.353 168.913 104.353 168.579C104.353 168.251 104.385 168.02 104.449 167.885C104.514 167.75 104.619 167.683 104.766 167.683H108.422C108.492 167.683 108.551 167.697 108.598 167.727C108.65 167.756 108.694 167.806 108.729 167.876C108.765 167.946 108.788 168.04 108.8 168.157C108.817 168.274 108.826 168.415 108.826 168.579ZM112.913 172.684C112.913 172.742 112.893 172.795 112.852 172.842C112.816 172.889 112.755 172.927 112.667 172.956C112.579 172.985 112.462 173.009 112.315 173.026C112.169 173.044 111.981 173.053 111.753 173.053C111.53 173.053 111.343 173.044 111.19 173.026C111.044 173.009 110.927 172.985 110.839 172.956C110.751 172.927 110.687 172.889 110.646 172.842C110.61 172.795 110.593 172.742 110.593 172.684V161.943C110.593 161.885 110.61 161.832 110.646 161.785C110.687 161.738 110.751 161.7 110.839 161.671C110.933 161.642 111.053 161.618 111.199 161.601C111.346 161.583 111.53 161.574 111.753 161.574C111.981 161.574 112.169 161.583 112.315 161.601C112.462 161.618 112.579 161.642 112.667 161.671C112.755 161.7 112.816 161.738 112.852 161.785C112.893 161.832 112.913 161.885 112.913 161.943V172.684ZM122.748 172.701C122.748 172.76 122.73 172.812 122.695 172.859C122.66 172.9 122.602 172.936 122.52 172.965C122.438 172.994 122.323 173.015 122.177 173.026C122.036 173.044 121.86 173.053 121.649 173.053C121.433 173.053 121.251 173.044 121.104 173.026C120.964 173.015 120.853 172.994 120.771 172.965C120.688 172.936 120.63 172.9 120.595 172.859C120.56 172.812 120.542 172.76 120.542 172.701V168.228C120.542 167.847 120.513 167.548 120.454 167.331C120.401 167.114 120.322 166.93 120.217 166.777C120.111 166.619 119.974 166.499 119.804 166.417C119.64 166.329 119.446 166.285 119.224 166.285C118.942 166.285 118.658 166.388 118.371 166.593C118.084 166.798 117.785 167.097 117.475 167.489V172.701C117.475 172.76 117.457 172.812 117.422 172.859C117.387 172.9 117.325 172.936 117.237 172.965C117.155 172.994 117.044 173.015 116.903 173.026C116.763 173.044 116.584 173.053 116.367 173.053C116.15 173.053 115.972 173.044 115.831 173.026C115.69 173.015 115.576 172.994 115.488 172.965C115.406 172.936 115.348 172.9 115.312 172.859C115.277 172.812 115.26 172.76 115.26 172.701V164.861C115.26 164.803 115.274 164.753 115.304 164.712C115.333 164.665 115.386 164.627 115.462 164.598C115.538 164.568 115.635 164.548 115.752 164.536C115.875 164.519 116.027 164.51 116.209 164.51C116.396 164.51 116.552 164.519 116.675 164.536C116.798 164.548 116.892 164.568 116.956 164.598C117.026 164.627 117.076 164.665 117.105 164.712C117.135 164.753 117.149 164.803 117.149 164.861V165.767C117.583 165.298 118.022 164.946 118.468 164.712C118.919 164.478 119.388 164.36 119.874 164.36C120.407 164.36 120.855 164.448 121.219 164.624C121.588 164.8 121.884 165.04 122.106 165.345C122.335 165.644 122.499 165.995 122.599 166.399C122.698 166.804 122.748 167.29 122.748 167.858V172.701ZM129.393 171.928C129.393 172.186 129.375 172.385 129.34 172.525C129.311 172.66 129.27 172.757 129.217 172.815C129.164 172.868 129.085 172.918 128.979 172.965C128.88 173.006 128.76 173.041 128.619 173.07C128.484 173.105 128.335 173.132 128.171 173.149C128.013 173.167 127.852 173.176 127.688 173.176C127.248 173.176 126.867 173.12 126.545 173.009C126.223 172.897 125.956 172.728 125.745 172.499C125.534 172.265 125.379 171.972 125.279 171.62C125.18 171.269 125.13 170.853 125.13 170.372V166.355H124.189C124.078 166.355 123.993 166.288 123.935 166.153C123.876 166.013 123.847 165.781 123.847 165.459C123.847 165.289 123.853 165.146 123.864 165.028C123.882 164.911 123.905 164.82 123.935 164.756C123.964 164.686 123.999 164.636 124.04 164.606C124.087 164.577 124.14 164.562 124.198 164.562H125.13V162.813C125.13 162.755 125.145 162.702 125.174 162.655C125.209 162.608 125.268 162.57 125.35 162.541C125.438 162.506 125.552 162.482 125.692 162.471C125.839 162.453 126.018 162.444 126.229 162.444C126.445 162.444 126.624 162.453 126.765 162.471C126.911 162.482 127.025 162.506 127.107 162.541C127.189 162.57 127.248 162.608 127.283 162.655C127.318 162.702 127.336 162.755 127.336 162.813V164.562H129.041C129.1 164.562 129.149 164.577 129.19 164.606C129.237 164.636 129.275 164.686 129.305 164.756C129.334 164.82 129.354 164.911 129.366 165.028C129.384 165.146 129.393 165.289 129.393 165.459C129.393 165.781 129.363 166.013 129.305 166.153C129.246 166.288 129.161 166.355 129.05 166.355H127.336V170.038C127.336 170.466 127.403 170.788 127.538 171.005C127.673 171.216 127.913 171.321 128.259 171.321C128.376 171.321 128.481 171.312 128.575 171.295C128.669 171.271 128.751 171.248 128.821 171.225C128.897 171.195 128.959 171.172 129.006 171.154C129.059 171.131 129.105 171.119 129.146 171.119C129.182 171.119 129.214 171.131 129.243 171.154C129.278 171.172 129.305 171.213 129.322 171.277C129.34 171.336 129.354 171.418 129.366 171.523C129.384 171.629 129.393 171.764 129.393 171.928ZM138.006 168.553C138.006 168.822 137.944 169.021 137.821 169.15C137.704 169.279 137.54 169.344 137.329 169.344H132.557C132.557 169.678 132.595 169.982 132.671 170.258C132.753 170.527 132.879 170.759 133.049 170.952C133.225 171.14 133.447 171.283 133.717 171.383C133.992 171.482 134.32 171.532 134.701 171.532C135.088 171.532 135.428 171.506 135.721 171.453C136.014 171.395 136.266 171.333 136.477 171.269C136.693 171.198 136.872 171.137 137.013 171.084C137.153 171.025 137.268 170.996 137.355 170.996C137.408 170.996 137.452 171.008 137.487 171.031C137.522 171.049 137.552 171.084 137.575 171.137C137.599 171.189 137.613 171.266 137.619 171.365C137.631 171.459 137.637 171.579 137.637 171.726C137.637 171.854 137.634 171.966 137.628 172.06C137.622 172.147 137.613 172.224 137.602 172.288C137.59 172.353 137.572 172.408 137.549 172.455C137.525 172.496 137.493 172.537 137.452 172.578C137.417 172.619 137.314 172.675 137.145 172.745C136.975 172.815 136.758 172.886 136.494 172.956C136.23 173.021 135.929 173.076 135.589 173.123C135.249 173.176 134.886 173.202 134.499 173.202C133.802 173.202 133.189 173.114 132.662 172.938C132.141 172.763 131.704 172.496 131.353 172.139C131.001 171.781 130.737 171.33 130.562 170.785C130.392 170.24 130.307 169.602 130.307 168.869C130.307 168.172 130.397 167.545 130.579 166.988C130.761 166.426 131.024 165.951 131.37 165.564C131.716 165.172 132.135 164.873 132.627 164.668C133.125 164.463 133.685 164.36 134.306 164.36C134.962 164.36 135.521 164.457 135.984 164.65C136.453 164.844 136.837 165.113 137.136 165.459C137.435 165.799 137.654 166.203 137.795 166.672C137.936 167.141 138.006 167.65 138.006 168.201V168.553ZM135.861 167.92C135.879 167.299 135.753 166.812 135.483 166.461C135.22 166.104 134.81 165.925 134.253 165.925C133.972 165.925 133.726 165.978 133.515 166.083C133.31 166.188 133.137 166.332 132.996 166.514C132.861 166.689 132.756 166.9 132.68 167.146C132.609 167.387 132.568 167.645 132.557 167.92H135.861ZM144.87 165.591C144.87 165.802 144.864 165.975 144.853 166.109C144.841 166.244 144.823 166.35 144.8 166.426C144.776 166.502 144.744 166.555 144.703 166.584C144.668 166.613 144.621 166.628 144.562 166.628C144.516 166.628 144.463 166.619 144.404 166.602C144.346 166.578 144.278 166.555 144.202 166.531C144.132 166.508 144.053 166.487 143.965 166.47C143.877 166.446 143.78 166.435 143.675 166.435C143.552 166.435 143.429 166.461 143.306 166.514C143.183 166.561 143.054 166.637 142.919 166.742C142.79 166.848 142.652 166.988 142.506 167.164C142.365 167.34 142.213 167.557 142.049 167.814V172.701C142.049 172.76 142.031 172.812 141.996 172.859C141.961 172.9 141.899 172.936 141.812 172.965C141.729 172.994 141.618 173.015 141.478 173.026C141.337 173.044 141.158 173.053 140.941 173.053C140.725 173.053 140.546 173.044 140.405 173.026C140.265 173.015 140.15 172.994 140.062 172.965C139.98 172.936 139.922 172.9 139.887 172.859C139.852 172.812 139.834 172.76 139.834 172.701V164.861C139.834 164.803 139.849 164.753 139.878 164.712C139.907 164.665 139.96 164.627 140.036 164.598C140.112 164.568 140.209 164.548 140.326 164.536C140.449 164.519 140.602 164.51 140.783 164.51C140.971 164.51 141.126 164.519 141.249 164.536C141.372 164.548 141.466 164.568 141.53 164.598C141.601 164.627 141.65 164.665 141.68 164.712C141.709 164.753 141.724 164.803 141.724 164.861V165.837C141.929 165.544 142.122 165.304 142.304 165.116C142.485 164.923 142.658 164.771 142.822 164.659C142.986 164.548 143.15 164.472 143.314 164.431C143.479 164.384 143.643 164.36 143.807 164.36C143.883 164.36 143.965 164.366 144.053 164.378C144.141 164.384 144.231 164.398 144.325 164.422C144.419 164.439 144.501 164.463 144.571 164.492C144.642 164.516 144.691 164.542 144.721 164.571C144.756 164.601 144.779 164.633 144.791 164.668C144.809 164.703 144.823 164.753 144.835 164.817C144.847 164.876 144.855 164.967 144.861 165.09C144.867 165.213 144.87 165.38 144.87 165.591ZM153.721 172.701C153.721 172.76 153.703 172.812 153.668 172.859C153.633 172.9 153.574 172.936 153.492 172.965C153.41 172.994 153.296 173.015 153.149 173.026C153.009 173.044 152.833 173.053 152.622 173.053C152.405 173.053 152.224 173.044 152.077 173.026C151.937 173.015 151.825 172.994 151.743 172.965C151.661 172.936 151.603 172.9 151.567 172.859C151.532 172.812 151.515 172.76 151.515 172.701V168.228C151.515 167.847 151.485 167.548 151.427 167.331C151.374 167.114 151.295 166.93 151.189 166.777C151.084 166.619 150.946 166.499 150.776 166.417C150.612 166.329 150.419 166.285 150.196 166.285C149.915 166.285 149.631 166.388 149.344 166.593C149.057 166.798 148.758 167.097 148.447 167.489V172.701C148.447 172.76 148.43 172.812 148.395 172.859C148.359 172.9 148.298 172.936 148.21 172.965C148.128 172.994 148.017 173.015 147.876 173.026C147.735 173.044 147.557 173.053 147.34 173.053C147.123 173.053 146.944 173.044 146.804 173.026C146.663 173.015 146.549 172.994 146.461 172.965C146.379 172.936 146.32 172.9 146.285 172.859C146.25 172.812 146.232 172.76 146.232 172.701V164.861C146.232 164.803 146.247 164.753 146.276 164.712C146.306 164.665 146.358 164.627 146.435 164.598C146.511 164.568 146.607 164.548 146.725 164.536C146.848 164.519 147 164.51 147.182 164.51C147.369 164.51 147.524 164.519 147.647 164.536C147.771 164.548 147.864 164.568 147.929 164.598C147.999 164.627 148.049 164.665 148.078 164.712C148.107 164.753 148.122 164.803 148.122 164.861V165.767C148.556 165.298 148.995 164.946 149.44 164.712C149.892 164.478 150.36 164.36 150.847 164.36C151.38 164.36 151.828 164.448 152.191 164.624C152.561 164.8 152.856 165.04 153.079 165.345C153.308 165.644 153.472 165.995 153.571 166.399C153.671 166.804 153.721 167.29 153.721 167.858V172.701Z" fill="white"/>
<defs>
<linearGradient id="paint0_linear_3_12" x1="324" y1="77" x2="324" y2="136" gradientUnits="userSpaceOnUse">
<stop stop-color="#0C275D"/>
<stop offset="1" stop-color="#3099CF"/>
</linearGradient>
<linearGradient id="paint1_linear_3_12" x1="324.5" y1="136" x2="324.5" y2="160" gradientUnits="userSpaceOnUse">
<stop stop-color="#0C275D"/>
<stop offset="1" stop-color="#3099CF"/>
</linearGradient>
<linearGradient id="paint2_linear_3_12" x1="318" y1="157" x2="318" y2="181" gradientUnits="userSpaceOnUse">
<stop stop-color="#0C275D"/>
<stop offset="1" stop-color="#3099CF"/>
</linearGradient>
<linearGradient id="paint3_linear_3_12" x1="104" y1="63" x2="104" y2="209" gradientUnits="userSpaceOnUse">
<stop stop-color="#0C2A60"/>
<stop offset="1" stop-color="#1A8AC9"/>
</linearGradient>
</defs>
</svg>
